Results
version=1
nRows=22
nColumns=24
inDegrees=yes
endheader
time	pelvis_tilt	pelvis_list	pelvis_rotation	pelvis_tx	pelvis_ty	pelvis_tz	hip_flexion_r	hip_adduction_r	hip_rotation_r	knee_angle_r	ankle_angle_r	subtalar_angle_r	mtp_angle_r	hip_flexion_l	hip_adduction_l	hip_rotation_l	knee_angle_l	ankle_angle_l	subtalar_angle_l	mtp_angle_l	lumbar_extension	lumbar_bending	lumbar_rotation
      0.77500000	     -3.74102854	     -2.98725462	      7.19493553	     -0.44543032	      1.02632925	      0.32444537	     15.94636242	      8.48607133	     -5.99394080	    -15.91721641	      1.34149986	     -8.18340063	      9.58841198	     21.34966374	     -5.47649445	     -2.38672594	    -67.47624660	     -2.11937146	     -0.91546199	      4.63324741	     -0.39786817	      0.40660516	     -1.82918561
      0.77916667	     -3.76175410	     -2.91162230	      7.16998381	     -0.44040776	      1.02708720	      0.32459449	     15.52437704	      8.46117997	     -5.98839742	    -15.67030301	      1.45811791	     -8.07622644	      9.59395102	     21.86144284	     -5.40141245	     -2.35077952	    -67.09043115	     -1.54519088	     -1.37102759	      4.61264205	     -0.42239999	      0.31007409	     -1.75511541
      0.78333333	     -3.77917300	     -2.79205745	      7.13552051	     -0.43541231	      1.02788706	      0.32472583	     15.10361935	      8.38202797	     -6.00675920	    -15.45043621	      1.65396558	     -7.81661006	      9.60889929	     22.33355446	     -5.26567328	     -2.32074065	    -66.60416744	     -1.10388062	     -1.91111595	      4.51589632	     -0.46629826	      0.15426776	     -1.55997074
      0.78750000	     -3.80706321	     -2.70940476	      7.10278572	     -0.43041880	      1.02862094	      0.32487567	     14.68789773	      8.34826820	     -5.99793324	    -15.19781201	      1.74980374	     -7.71489158	      9.61439737	     22.81311891	     -5.17713346	     -2.29159031	    -66.07907131	     -0.57100839	     -2.29178495	      4.48749757	     -0.48370323	      0.05204469	     -1.50487590
      0.79166667	     -3.80722214	     -2.58328684	      7.05898951	     -0.42545708	      1.02940671	      0.32501034	     14.24679482	      8.26603454	     -6.00219469	    -14.97071454	      1.92947701	     -7.48184118	      9.62817018	     23.22613646	     -5.03128907	     -2.26454361	    -65.45982504	     -0.18334775	     -2.77235484	      4.38738023	     -0.55947466	     -0.10551043	     -1.34236056
      0.79583333	     -3.84202835	     -2.47503864	      7.00723740	     -0.42049377	      1.03010254	      0.32515426	     13.84670447	      8.19999475	     -6.00251824	    -14.74304016	      2.08366665	     -7.28665051	      9.64175491	     23.66153047	     -4.90450652	     -2.24575168	    -64.78676843	      0.22986290	     -3.17071562	      4.26839962	     -0.56993144	     -0.24427908	     -1.21261436
      0.80000000	     -3.84853095	     -2.34925644	      6.94527154	     -0.41556770	      1.03083137	      0.32530602	     13.41651808	      8.12280208	     -5.96852529	    -14.51637601	      2.19986254	     -7.14469539	      9.64974555	     24.03892786	     -4.75931223	     -2.23058116	    -64.04082256	      0.64279889	     -3.53566207	      4.19846679	     -0.64589445	     -0.38009463	     -1.12281793
      0.80416667	     -3.86753594	     -2.22055087	      6.87698107	     -0.41062331	      1.03152333	      0.32546691	     12.99810653	      8.03898207	     -5.95489601	    -14.28903531	      2.37278495	     -6.92928452	      9.66096973	     24.40460635	     -4.61188577	     -2.22795180	    -63.22219920	      0.95254885	     -3.92819110	      4.07056943	     -0.67747496	     -0.55058673	     -0.96337585
      0.80833333	     -3.87209667	     -2.10005438	      6.79733303	     -0.40571115	      1.03219221	      0.32563007	     12.57107694	      7.96828317	     -5.91425424	    -14.06809067	      2.51423550	     -6.76673505	      9.66790980	     24.73653445	     -4.47643195	     -2.22878707	    -62.34989049	      1.28957569	     -4.26611840	      3.96287464	     -0.74260568	     -0.69521780	     -0.83916959
      0.81250000	     -3.88341773	     -1.95849792	      6.70370901	     -0.40080126	      1.03285135	      0.32580369	     12.15372207	      7.87466589	     -5.86332503	    -13.85821654	      2.66578896	     -6.58819846	      9.67293675	     25.04095649	     -4.31535656	     -2.23900978	    -61.39609881	      1.57688159	     -4.60601875	      3.84059314	     -0.80083215	     -0.86171276	     -0.69004154
      0.81666667	     -3.89614351	     -1.83269059	      6.60023909	     -0.39591172	      1.03344410	      0.32598616	     11.74547559	      7.79897195	     -5.79869669	    -13.65656744	      2.81691730	     -6.42140232	      9.67458563	     25.33123049	     -4.17423984	     -2.25301622	    -60.39344883	      1.85414193	     -4.92026739	      3.71574655	     -0.85886722	     -1.00956539	     -0.53771917
      0.82083333	     -3.90250321	     -1.69002363	      6.48115509	     -0.39101982	      1.03404986	      0.32617778	     11.33088582	      7.70716961	     -5.71551343	    -13.45901499	      2.96510519	     -6.26746863	      9.67304932	     25.57912347	     -4.01719008	     -2.28005522	    -59.31070417	      2.09230272	     -5.23320184	      3.59853945	     -0.92513052	     -1.17519180	     -0.38576459
      0.82500000	     -3.91051746	     -1.55604124	      6.35451890	     -0.38616253	      1.03459045	      0.32636847	     10.92951902	      7.62235143	     -5.62945795	    -13.27849125	      3.11749042	     -6.08323451	      9.66461506	     25.81193661	     -3.86612205	     -2.30131100	    -58.17670677	      2.31651772	     -5.55545592	      3.42496299	     -1.00172357	     -1.32496205	     -0.18044401
      0.82916667	     -3.91125456	     -1.42848284	      6.21207667	     -0.38129481	      1.03511748	      0.32657792	     10.52087933	      7.54832315	     -5.52293869	    -13.09568033	      3.26468852	     -5.93842722	      9.64841926	     26.00917089	     -3.73137814	     -2.34053410	    -56.97697531	      2.51014303	     -5.84974609	      3.24001499	     -1.07329738	     -1.46744986	      0.00474735
      0.83333333	     -3.93284147	     -1.28467854	      6.04581890	     -0.37643292	      1.03557880	      0.32683092	     10.14513989	      7.45935103	     -5.37335136	    -12.93857432	      3.41055905	     -5.85331862	      9.64090425	     26.19575790	     -3.58853706	     -2.40806419	    -55.70814200	      2.68880427	     -6.09445651	      3.15878102	     -1.12582283	     -1.63360321	      0.10984304
      0.83750000	     -3.93177939	     -1.14503898	      5.87489577	     -0.37156979	      1.03605165	      0.32707263	      9.74296543	      7.37441652	     -5.22256101	    -12.77427541	      3.55839236	     -5.73439041	      9.63008451	     26.33030783	     -3.44780666	     -2.46959392	    -54.37079452	      2.80614363	     -6.39922878	      3.06742700	     -1.20377794	     -1.79444322	      0.28631869
      0.84166667	     -3.94138824	     -1.02805608	      5.69586415	     -0.36671904	      1.03642819	      0.32732098	      9.36221189	      7.31169652	     -5.06823217	    -12.62164281	      3.71890193	     -5.61694644	      9.61514735	     26.46229269	     -3.33439781	     -2.53474996	    -52.99059632	      2.89315544	     -6.70483053	      2.96314600	     -1.26151089	     -1.92824758	      0.49230723
      0.84583333	     -3.93069377	     -0.90890957	      5.51794242	     -0.36184356	      1.03683062	      0.32755664	      8.95209357	      7.24466763	     -4.92773877	    -12.45271955	      3.89561240	     -5.48310201	      9.58685941	     26.54053739	     -3.21714862	     -2.59623183	    -51.53663561	      2.90099911	     -7.04927458	      2.80298559	     -1.33231690	     -2.05818194	      0.76828395
      0.85000000	     -3.92644111	     -0.79392630	      5.31824517	     -0.35699417	      1.03717178	      0.32781793	      8.56248155	      7.18303285	     -4.75580802	    -12.30724271	      4.05618210	     -5.36756802	      9.55192326	     26.60044427	     -3.11175953	     -2.67779827	    -50.02630935	      2.91896938	     -7.37211421	      2.62751780	     -1.40374638	     -2.18315799	      1.00628271
      0.85416667	     -3.92950900	     -0.69295785	      5.10922208	     -0.35213618	      1.03745326	      0.32808845	      8.18435448	      7.13525661	     -4.56966459	    -12.16533716	      4.21075530	     -5.27181864	      9.51144327	     26.64477972	     -3.02459079	     -2.76808024	    -48.46263270	      2.90270149	     -7.70292370	      2.43983372	     -1.46597532	     -2.29414448	      1.23852377
      0.85833333	     -3.94106449	     -0.59475530	      4.89062008	     -0.34726991	      1.03768778	      0.32836368	      7.81841119	      7.08745734	     -4.37608599	    -12.02853227	      4.36418517	     -5.17017608	      9.46148539	     26.67011049	     -2.94175648	     -2.86795467	    -46.83620487	      2.84375030	     -8.05594649	      2.22190103	     -1.51563889	     -2.39886855	      1.48983540
      0.86250000	     -3.95067364	     -0.51291188	      4.66027622	     -0.34241878	      1.03786912	      0.32864447	      7.45858132	      7.05553509	     -4.16871545	    -11.90163634	      4.49247728	     -5.05318393	      9.38124875	     26.67202154	     -2.87854392	     -2.97306423	    -45.16182503	      2.76792169	     -8.42170204	      1.89868548	     -1.57658742	     -2.48661239	      1.77488659
